<?xml version="1.0" encoding="utf-8"?>
<!-- Generator: Adobe Illustrator 26.3.1, SVG Export Plug-In . SVG Version: 6.00 Build 0)  -->
<svg version="1.1" id="Layer_1" xmlns="http://www.w3.org/2000/svg" xmlns:xlink="http://www.w3.org/1999/xlink" x="0px" y="0px"
	 viewBox="0 0 398.07 388.18" style="enable-background:new 0 0 398.07 388.18;" xml:space="preserve">
<style type="text/css">
	.st0{fill:#04216F;}
</style>
<g>
	<g>
		<path class="st0" d="M58.48,341.32c-0.92-4.5,1.01-6.14,5.48-6.08c13.09,0.15,26.17,0.09,39.26,0.05
			c9.6-0.03,11.87-2.24,11.89-11.63c0.04-24.11,0.05-48.22,0.02-72.33c-0.01-9.08-2.33-11.45-11.37-11.51
			c-13.09-0.09-26.18,0.09-39.26-0.16c-2.06-0.04-4.09-1.7-6.13-2.61c2.09-1.07,4.17-3.02,6.29-3.06
			c12.62-0.29,25.25-0.16,37.88-0.14c14.06,0.02,18.85,4.78,19.19,19.01c0.03,1.3,0.25,2.59,0.44,4.54
			c3.96-1.93,7.33-3.78,10.87-5.25c23.63-9.89,46.83-7.83,69.05,3.88c14.76,7.78,29.04,10.1,44.7,2.88
			c8.35-3.85,13.58-0.98,20.65,9.29c7.23-5.16,14.44-10.36,21.7-15.48c7.67-5.4,15.12-4.87,20.22,1.35
			c4.82,5.89,4.5,14.12-1.96,19.71c-14.37,12.44-28.62,25.14-43.99,36.26c-16,11.57-34.68,14.55-54.4,12.95
			c-26.99-2.19-54.05-3.55-81.08-5.23c-1.78-0.11-3.58-0.01-6.18-0.01c0.72,10.02-0.34,19.2-10.9,23.61
			C93.39,341.32,75.94,341.32,58.48,341.32z M121.7,310.99c31.67,1.93,62.33,4.11,93.02,5.48c8.33,0.37,17.11-0.49,25.1-2.79
			c26.9-7.74,45.53-27.58,64.6-46.45c1.54-1.52,1.26-7.48-0.37-8.93c-2.05-1.84-7.08-2.58-9.53-1.31
			c-5.84,3.03-10.99,7.43-16.29,11.45c-3.98,3.02-7.85,6.19-11.59,9.49c-3.85,3.4-6.94,8.08-11.32,10.41
			c-15.55,8.3-32.59,8.53-49.67,7.36c-1.34-0.09-2.53-2.33-3.78-3.57c1.4-0.84,2.71-1.99,4.22-2.42c1.23-0.35,2.71,0.25,4.08,0.28
			c15.73,0.37,31.24-0.54,45.42-8.44c4.87-2.72,6.9-6.9,4.38-12.13c-2.33-4.83-6.54-6.5-11.52-4.19
			c-17.36,8.04-33.42,5.14-49.95-3.55c-23.92-12.57-48.39-13-72.15,1.22c-2.02,1.21-4.39,3.93-4.45,6
			C121.51,282.64,121.7,296.38,121.7,310.99z"/>
		<path class="st0" d="M163.77,97.41c-10.95,0-19.4,0-29.74,0c3.54,5.58,6.6,9.9,9.06,14.54c0.92,1.74,0.44,4.22,0.6,6.37
			c-1.82-0.9-4.4-1.31-5.35-2.78c-5.41-8.4-10.43-17.04-15.53-25.51c-10.53,14.2-10.56,23.88-0.39,39.8
			c1.71,2.67,6.33,5.24,2.22,9.1c-0.29,0.28-5.03-3.32-6.9-5.73c-10.33-13.3-12.15-27.31-3.08-42.17c2.14-3.51,4.08-7.28,5.28-11.19
			c2.95-9.56,9.76-13.64,19.1-13.73c8.68-0.09,17.49-0.13,25.99,1.3c3.83,0.65,8.21,4.23,10.3,7.71
			c4.48,7.42,7.75,15.59,11.29,23.55c3.78,8.51,3.2,16.97-1.03,25.2c-0.84,1.63-1.58,3.36-2.69,4.8
			c-20,25.96-40.05,51.87-60.63,78.49c-9.16-7.61-17.51-14.54-26.08-21.66C118.01,155.91,142.78,129.43,163.77,97.41z
			 M120.96,197.62c3.14-3.85,5.91-7.15,8.57-10.54c15.82-20.19,32.12-40.03,47.24-60.73c9.35-12.8,7.76-23.99-2.53-36.58
			c-17.25,35.55-46.48,62.46-69.09,94.74C110.47,188.91,115.51,193.1,120.96,197.62z M148.3,71.75c-4.96,0.56-10.21,0.9-15.36,1.79
			c-5.05,0.87-6.01,4.67-4.64,8.85c1.3,3.97-0.12,10.11,7.79,9.42c8.13-0.71,16.43-0.87,24.53-0.08c8.25,0.81,7.04-5.34,8.36-9.64
			c1.46-4.74-0.08-8.21-5.4-8.9C158.61,72.55,153.6,72.24,148.3,71.75z"/>
		<path class="st0" d="M275.87,168.88c-23.51,0-46.24,0-68.97-0.01c-2.07,0-4.22,0.27-6.16-0.24c-1.25-0.33-2.19-1.85-3.28-2.83
			c1.06-1.01,1.95-2.5,3.21-2.91c1.68-0.54,3.63-0.29,5.47-0.29c20.9,0.01,41.8,0.04,62.69,0.04c2.24,0,4.48-0.2,6.4-0.29
			c0-14.84,1.49-29.41-0.39-43.53c-2.18-16.42-13.4-26.93-29.45-31.05c-16.4-4.21-30.31,0.8-41.45,13.51
			c-0.6,0.69-0.99,1.77-1.73,2.1c-1.63,0.74-3.42,1.12-5.14,1.64c0.11-1.86-0.49-4.22,0.43-5.52c7.07-9.98,16.71-16.43,28.76-18.52
			c29.75-5.18,55.44,15.49,56.15,45.64c0.58,24.78,0.58,49.6,0.04,74.39c-0.52,24.33-17.62,43.71-39.86,46.51
			c-23.96,3.02-45.12-10.09-52.07-32.32c-0.68-2.17-1.45-4.49-1.33-6.69c0.1-1.86,1.44-3.65,2.23-5.48
			c1.25,1.56,3.26,2.96,3.64,4.72c3.12,14.18,10.72,24.7,24.2,30.58c24.58,10.73,53.34-5.04,56.38-31.73
			C277.02,194.44,275.87,181.97,275.87,168.88z"/>
		<path class="st0" d="M201.79,185.32c-8.76,7.26-17.02,14.11-25.9,21.48c-7.81-9.73-15.45-19.11-22.85-28.69
			c-0.83-1.07-0.27-3.22-0.35-4.86c1.77,0.42,4.21,0.24,5.18,1.35c4.97,5.71,9.54,11.75,14.27,17.66c1.4,1.75,2.87,3.44,4.67,5.6
			c5.42-4.48,10.49-8.67,16.15-13.36c-6.83-8.51-13.52-16.59-19.84-24.96c-1.34-1.78-1.3-4.6-1.9-6.94c2.2,0.99,5.08,1.4,6.49,3.06
			C185.71,165.1,193.36,174.85,201.79,185.32z"/>
		<path class="st0" d="M236.95,97.27c15.17,0.66,28.65,14.19,28.71,27.52c0.01,1.71-1.95,3.43-2.99,5.14
			c-1.02-1.52-2.64-2.91-2.96-4.56c-2.49-13.14-8.72-19.5-21.74-22.27c-1.78-0.38-3.25-2.2-4.86-3.35
			C234.8,98.66,236.48,97.58,236.95,97.27z"/>
	</g>
</g>
</svg>
