<?xml version="1.0" encoding="utf-8"?>
<!-- Generator: Adobe Illustrator 26.3.1, SVG Export Plug-In . SVG Version: 6.00 Build 0)  -->
<svg version="1.1" id="Layer_1" xmlns="http://www.w3.org/2000/svg" xmlns:xlink="http://www.w3.org/1999/xlink" x="0px" y="0px"
	 viewBox="0 0 398.07 388.18" style="enable-background:new 0 0 398.07 388.18;" xml:space="preserve">
<style type="text/css">
	.st0{fill:#04216F;}
</style>
<g>
	<g>
		<path class="st0" d="M352.71,147.51c0.13,1.82,0.37,4.04,0.43,6.27c0.72,25.86,1.41,51.73,2.1,77.59
			c0.04,1.37,0.43,2.93-0.08,4.08c-0.73,1.66-2.12,3.03-3.23,4.53c-1.39-1.48-3.81-2.84-3.99-4.45c-0.73-6.58-0.87-13.24-1.06-19.87
			c-0.54-18.54-1.12-37.08-1.4-55.62c-0.07-4.68-1.51-6.37-6.36-6.32c-21.3,0.22-42.61,0.23-63.91,0.01
			c-4.88-0.05-6.56,1.69-6.28,6.37c0.19,3.18,0.18,6.49-0.51,9.56c-0.36,1.59-2.4,2.8-3.68,4.19c-1.26-1.36-3.54-2.68-3.59-4.08
			c-0.22-6.62-0.04-13.28,0.51-19.89c0.11-1.28,2.55-3.38,3.91-3.38c28.61-0.04,57.23,0.17,85.84,0.35
			C351.63,146.85,351.83,147.04,352.71,147.51z"/>
		<path class="st0" d="M307.79,60.39c18.24,0.12,32.74,15.04,32.73,33.68c-0.01,18.24-15.23,33.22-33.48,32.95
			c-18.63-0.28-33.18-14.98-33.02-33.38C274.18,74.61,288.75,60.26,307.79,60.39z M332.84,94.14c0.1-14.42-11.03-25.89-25.32-26.11
			c-14.16-0.21-25.79,11.24-25.91,25.53c-0.12,14.16,11.44,25.71,25.69,25.67C321.33,119.19,332.75,107.98,332.84,94.14z"/>
		<path class="st0" d="M74.98,101.67c0.23-18.33,15.25-32.83,33.79-32.62c18.25,0.2,33.05,15.41,32.81,33.71
			c-0.25,18.28-15.41,33.21-33.56,33.03C89.43,135.62,74.74,120.44,74.98,101.67z M108.01,127.8c14.45,0.09,25.42-10.56,25.62-24.88
			c0.21-14.65-10.74-25.98-25.24-26.12c-14.01-0.13-25.5,11.03-25.78,25.04C82.33,116.31,93.48,127.71,108.01,127.8z"/>
		<path class="st0" d="M174.77,244.74c0-9.15,0.09-18.3-0.04-27.45c-0.06-3.82,1.5-5.31,5.29-5.29c18.09,0.07,36.17,0.06,54.26-0.05
			c3.95-0.02,5.09,1.82,5.16,5.45c0.36,18.3,0.97,36.6,1.16,54.91c0.02,1.9-2.16,3.83-3.32,5.74c-1.34-1.98-3.74-3.91-3.84-5.95
			c-0.77-15.31-1.26-30.64-1.46-45.97c-0.07-4.83-1.91-6.37-6.52-6.31c-12.36,0.18-24.73,0.19-37.09-0.02
			c-4.41-0.07-6.09,1.45-6.14,5.92c-0.16,14.18-0.64,28.36-1,42.54c-0.04,1.6,0.38,3.47-0.3,4.74c-1.02,1.9-2.84,3.37-4.31,5.02
			c-1.12-1.72-3.16-3.4-3.22-5.16c-0.32-9.36-0.15-18.75-0.15-28.12C173.74,244.74,174.26,244.74,174.77,244.74z"/>
		<path class="st0" d="M45.66,244.88c2.77-11.09,5.25-21.08,7.75-31.06c2.66-10.65,5.22-21.32,8.02-31.93
			c4.47-16.92,16.97-26.6,34.52-26.78c9.16-0.1,18.34-0.37,27.47,0.12c11.99,0.64,21.48,6.12,27.38,16.77
			c0.94,1.69,0.02,4.4-0.04,6.64c-2.07-0.85-5.06-1.1-6.05-2.64c-6.54-10.19-15.94-13.78-27.57-13.31c-6.17,0.25-12.36,0-18.54-0.05
			c-16.89-0.12-26.47,7.54-30.38,23.83c-4.54,18.9-9.22,37.77-14.22,56.55c-0.59,2.2-3.53,3.78-5.38,5.64
			C47.48,247.21,46.36,245.76,45.66,244.88z"/>
		<path class="st0" d="M207.16,142.62c15.15,0.14,26.59,12.09,26.29,27.45c-0.28,13.98-12.16,25.26-26.42,25.08
			c-15.05-0.19-26.4-11.7-26.33-26.71C180.76,154.08,192.64,142.49,207.16,142.62z M207.01,150.19
			c-10.33,0.01-18.59,8.44-18.6,18.98c-0.01,9.79,8.61,18.52,18.37,18.61c10.29,0.1,18.96-8.43,19-18.68
			C225.82,158.8,217.26,150.18,207.01,150.19z"/>
		<path class="st0" d="M294.87,289.23c-0.01,10.76,0.22,21.52-0.19,32.26c-0.09,2.35-2.41,4.62-3.71,6.93
			c-1.28-2.3-3.64-4.59-3.67-6.91c-0.29-21.97-0.29-43.94-0.02-65.91c0.03-2.32,2.38-4.6,3.65-6.9c1.32,2.29,3.68,4.55,3.77,6.89
			C295.1,266.79,294.88,278.02,294.87,289.23z"/>
		<path class="st0" d="M327.36,289.22c0,10.76,0.22,21.53-0.17,32.27c-0.09,2.36-2.36,4.64-3.63,6.95c-1.34-2.29-3.8-4.57-3.83-6.88
			c-0.3-21.97-0.3-43.95-0.02-65.92c0.03-2.32,2.45-4.61,3.76-6.91c1.3,2.28,3.63,4.52,3.71,6.85
			C327.57,266.78,327.36,278,327.36,289.22z"/>
		<path class="st0" d="M130.52,289.9c0,10.52,0.22,21.05-0.17,31.55c-0.09,2.38-2.33,4.69-3.58,7.03c-1.28-2.25-3.65-4.49-3.68-6.76
			c-0.26-20.81-0.22-41.62,0.06-62.43c0.03-2.12,2.2-4.21,3.38-6.31c1.31,2.24,3.64,4.45,3.74,6.74
			c0.41,10.05,0.18,20.12,0.18,30.18C130.47,289.9,130.5,289.9,130.52,289.9z"/>
		<path class="st0" d="M85.96,290.12c0-10.29-0.21-20.59,0.17-30.87c0.08-2.14,2.33-4.2,3.57-6.3c1.31,2.04,3.72,4.05,3.75,6.11
			c0.3,21.04,0.33,42.08,0.08,63.12c-0.03,2.12-2.37,4.22-3.64,6.33c-1.34-2.05-3.75-4.05-3.83-6.15
			c-0.39-10.73-0.18-21.49-0.18-32.24C85.9,290.12,85.93,290.12,85.96,290.12z"/>
		<path class="st0" d="M214.32,303.51c0.01-7.54-0.24-15.09,0.19-22.61c0.1-1.78,2.48-3.44,3.81-5.15c1.18,1.66,3.34,3.3,3.37,4.98
			c0.25,15.53,0.23,31.07-0.05,46.6c-0.03,1.63-2.29,3.22-3.51,4.84c-1.27-1.78-3.54-3.51-3.64-5.35
			C214.07,319.06,214.31,311.28,214.32,303.51z"/>
		<path class="st0" d="M200.07,303.66c0,7.53,0.3,15.08-0.19,22.57c-0.14,2.05-2.65,3.94-4.08,5.9c-1.23-1.87-3.49-3.73-3.53-5.62
			c-0.29-15.05-0.29-30.11,0.01-45.17c0.04-1.86,2.36-3.68,3.63-5.52c1.39,1.98,3.84,3.89,3.98,5.95
			C200.37,289.03,200.07,296.35,200.07,303.66z"/>
	</g>
</g>
</svg>
