<?xml version="1.0" encoding="utf-8"?>
<!-- Generator: Adobe Illustrator 26.3.1, SVG Export Plug-In . SVG Version: 6.00 Build 0)  -->
<svg version="1.1" id="Layer_1" xmlns="http://www.w3.org/2000/svg" xmlns:xlink="http://www.w3.org/1999/xlink" x="0px" y="0px"
	 viewBox="0 0 398.07 388.18" style="enable-background:new 0 0 398.07 388.18;" xml:space="preserve">
<style type="text/css">
	.st0{fill:#04216F;}
</style>
<g>
	<g>
		<path class="st0" d="M239.46,241.33c4.88,3.38,11.24,7.66,17.46,12.13c15.27,10.96,26.13,24.9,29.22,43.95
			c0.34,2.06,0.57,4.28,0.19,6.3c-2.15,11.64-3.98,23.39-6.94,34.83c-3,11.6-13.31,16.38-26.15,13.41
			c-11.45-2.65-18.12-10.8-24.24-20c-3.33-5.01-7.53-9.51-11.69-13.91c-11.33-12-23.07-23.63-34.21-35.8
			c-6.81-7.43-9.51-16.9-11.3-26.72c-4.34-23.84-9.01-47.61-13.55-71.41c-0.07-0.38-0.18-0.76-0.18-1.14
			c0.04-3.05-1.9-7.32,2.84-8.08c4.91-0.78,4.26,3.7,4.85,6.78c5.08,26.64,9.6,53.41,15.65,79.83c1.79,7.83,6.98,15.48,12.33,21.75
			c8.58,10.06,18.29,19.21,28.09,28.13c5.61,5.1,10.7,10.22,14.28,17.01c3.44,6.53,8.2,12.12,15.46,14.91
			c13.98,5.37,22.77-1.46,21.24-16.85c-7.67-2.26-15.57-4.27-23.21-7c-3.09-1.1-6.18-3.31-8.33-5.82c-16-18.72-28.4-39.7-37.8-62.43
			c-1.35-3.25-1.62-7.13-1.65-10.72c-0.15-20.02-0.07-40.03-0.06-60.05c0-14.85-7.69-25.76-21.96-30.84c-2.8-1-6.17-1.5-4.87-5.51
			c1.29-3.96,4.57-2.55,7.31-1.75c1.46,0.42,2.78,1.36,4.25,1.75c2.32,0.62,5.78,2.16,6.86,1.19c2.52-2.25,6.5-4.75,3.63-9.62
			c-0.54-0.91,0.54-3.97,1.4-4.22c1.48-0.43,3.71,0.11,5.02,1.07c2.9,2.14,5.25,5.03,8.15,7.17c3.2,2.36,6.38,2.01,9.2-1.16
			c4.4-4.96,9.21-9.58,13.31-14.77c1.19-1.5,0.81-4.44,0.73-6.7c-0.16-4.04,0.98-6.84,4.2-9.91c5.05-4.81,8.73-10.98,7.07-18.61
			c-8.7,2.9-17.07,5.03-24.83,8.53c-4.17,1.88-7.72,5.71-10.79,9.32c-7.48,8.81-16.34,15.31-26.78,20.45
			c-8.52,4.19-16.55,9.9-23.7,16.19c-11.43,10.04-16.29,23.5-16.53,38.65c-0.4,25.78,3.11,51.03,10.26,75.79
			c1.71,5.91,3.27,11.87,4.77,17.84c3.35,13.25,0.37,25.87-3.59,38.52c-4.18,13.33-7.65,26.89-11.69,40.27
			c-0.47,1.56-2.63,2.61-4.01,3.9c-1.15-1.54-3.33-3.13-3.26-4.61c0.22-4.76,0.73-9.64,2.11-14.18
			c3.68-12.14,7.88-24.13,11.85-36.18c3.18-9.63,2.96-19.3,0.3-28.99c-1.98-7.24-3.8-14.52-5.97-21.7
			c-0.47-1.55-1.93-3.64-3.29-3.94c-21.85-4.9-31.42-20.88-36.16-40.63c-6.47-26.95,2.21-50.45,18.01-71.99
			c2.84-3.88,5.58-7.91,8.93-11.32c13.48-13.74,21.12-31.02,29.8-47.74c5.92-11.41,13.97-21.28,25.28-27.88
			c21.73-12.69,47.79-6.08,62.25,15.5c1.47,2.19,3.75,3.87,5.07,6.13c2.96,5.06,6.75,10.05,8.09,15.57
			c4.32,17.9,2.86,35.6-4.99,52.44c-6.79,14.59-10.34,29.58-8.87,45.87c0.97,10.72,0.69,21.62-5.85,31.15
			c-0.48,0.69-0.29,1.85-0.4,2.79C241.25,225.57,240.42,232.87,239.46,241.33z M140.81,239.87c-0.32-2.52-0.65-4.56-0.82-6.61
			c-1.44-17.41-3.61-34.8-4.05-52.23c-0.49-19.41,7.88-35.46,23.01-47.57c6.11-4.9,12.67-9.68,19.78-12.79
			c11.29-4.95,20.24-12.33,27.93-21.66c5.19-6.3,11.81-9.93,19.84-11.94c5.64-1.42,10.83-4.69,16.15-7.28
			c3.17-1.54,3.58-3.87,2.15-7.17c-8.11-18.74-32.19-27.78-50.68-18.91c-14.19,6.81-22.79,18.9-28.92,32.54
			c-7.58,16.86-17.76,31.68-29.69,45.71c-12.95,15.24-23.61,32.04-24.78,52.87c-0.98,17.41,2.1,33.8,14.81,46.96
			C129.52,235.92,134.13,239.26,140.81,239.87z M212.09,184.63c-0.72,0.4-1.45,0.81-2.17,1.21c-0.14,0.9-0.41,1.8-0.41,2.7
			c-0.02,18.28-0.1,36.55,0.07,54.83c0.03,2.79,0.86,5.75,2,8.33c8.97,20.13,20.64,38.64,34.25,55.92c1.37,1.73,3.27,3.41,5.28,4.19
			c5.51,2.13,11.19,3.85,16.84,5.58c4.38,1.34,7.41,0.85,9.07-4.56c3.91-12.78,0.24-23.92-6.36-34.54
			c-7.32-11.78-18.69-19.16-29.88-26.69c-4.91-3.31-9.55-7.14-16.3-3.95c-1.21,0.57-3.82-1.8-5.79-2.81
			c1.56-1.52,3.04-3.14,4.7-4.55c3.08-2.63,7.33-4.56,9.15-7.85c3.29-5.92,3.58-13.05-0.08-18.85
			C226.19,203.61,218.94,194.25,212.09,184.63z M255.56,93c-2.63,5.53-4.13,11.49-7.74,15.59c-4.65,5.29-5.96,10.7-5.54,17.26
			c0.12,1.89-0.87,5.47-1.66,5.55c-7.56,0.85-9.34,8.01-13.83,12.09c-6.86,6.23-10.57,7.27-18.54,3.05
			c-3.49-1.84-5.05-0.57-7.16,1.87c-2.39,2.77-2.2,4.7,0.3,7.33c2.34,2.46,5.01,5.36,5.73,8.49c1.95,8.46,8.15,13.66,13.36,19.71
			c4.01,4.65,7.94,9.38,11.79,14.17c1.95,2.42,3.64,5.04,5.44,7.58c0.67-0.14,1.35-0.28,2.02-0.41c0.32-6.97,1.04-13.96,0.88-20.92
			c-0.29-12.35-0.5-24.58,4.46-36.29c2.92-6.89,5.67-13.88,8.18-20.93C257.19,116.12,257.69,104.8,255.56,93z"/>
	</g>
</g>
</svg>
