<?xml version="1.0" encoding="utf-8"?>
<!-- Generator: Adobe Illustrator 26.3.1, SVG Export Plug-In . SVG Version: 6.00 Build 0)  -->
<svg version="1.1" id="Layer_1" xmlns="http://www.w3.org/2000/svg" xmlns:xlink="http://www.w3.org/1999/xlink" x="0px" y="0px"
	 viewBox="0 0 398.07 388.18" style="enable-background:new 0 0 398.07 388.18;" xml:space="preserve">
<style type="text/css">
	.st0{fill:#04216F;}
</style>
<g>
	<g>
		<path class="st0" d="M302.03,202.7c0.65-0.99,1-1.82,1.59-2.37c4.06-3.75,8.73-4.05,12.52-0.88c3.71,3.11,4.34,8.06,1.23,12.49
			c-5.14,7.33-10.47,14.53-15.73,21.77c-10.13,13.95-20.23,27.92-30.4,41.85c-3.93,5.38-8.71,6.93-13.1,4.4
			c-4.47-2.57-6.45-8.91-2.63-13.84c0.16-0.21,0.07-0.62,0.14-1.41c-8.08-5.9-16.35-11.95-24.63-17.99
			c-23.04-16.81-46.12-33.56-69.12-50.43c-13.4-9.83-18.54-23.46-15.28-39.35c3.27-15.96,13.65-26.26,29.82-29.74
			c11.2-2.41,21.66-0.17,31.06,6.69c29.99,21.9,60.03,43.74,90.04,65.61C298.75,200.36,299.95,201.21,302.03,202.7z M294.66,212.41
			c-6.48-4.7-12.49-9.06-18.87-13.68c-4.09,5.58-7.95,10.95-11.92,16.22c-1.08,1.43-2.36,3.44-3.8,3.67c-2,0.32-5.53-0.19-6.07-1.39
			c-0.96-2.14-1.11-5.63,0.06-7.55c3.68-6.03,8.12-11.6,12.5-17.66c-6.76-4.96-13.1-9.61-19.72-14.47c-1.6,2.14-2.88,3.85-4.14,5.56
			c-3.15,4.28-5.96,8.86-9.59,12.68c-1.36,1.43-4.93,2-6.91,1.3c-3.01-1.07-3.45-4.23-2.17-7.19c0.51-1.19,1.43-2.22,2.2-3.3
			c3.72-5.22,7.45-10.42,11.31-15.82c-3.7-2.67-6.93-4.99-10.15-7.31c-3.17-2.28-6.33-4.57-9.69-7.01
			c-1.53,2.01-2.64,3.43-3.71,4.89c-2.83,3.89-5.61,7.82-8.47,11.69c-3.1,4.19-6.2,5.19-9.09,2.81c-3.51-2.89-2.62-6.02-0.25-9.16
			c1.6-2.12,3.14-4.28,4.69-6.44c2.47-3.43,4.93-6.87,7.55-10.52c-3.62-2.69-6.55-5.14-9.74-7.18c-15.15-9.68-35.09-2-39.86,15.27
			c-3.1,11.22,0.68,21.7,10.9,29.18c30.26,22.15,60.59,44.2,90.91,66.27c0.88,0.64,1.91,1.07,3.12,1.73
			C274.04,240.85,284.15,226.91,294.66,212.41z"/>
		<path class="st0" d="M312.54,233.35c11.47,8.22,22.49,16.12,33.95,24.33c1.32-1.71,2.42-3.29,3.68-4.73
			c3.11-3.54,7.63-4.14,11.13-1.58c3.51,2.56,4.76,7.27,2.14,10.98c-10.16,14.33-20.49,28.53-30.93,42.65
			c-2.51,3.4-7.52,3.89-10.71,1.68c-3.53-2.45-4.68-7.16-2.57-11.02c0.94-1.72,2.16-3.28,3.56-5.37
			c-11.27-8.13-22.34-16.12-33.82-24.41C296.84,255.02,304.49,244.47,312.54,233.35z"/>
		<path class="st0" d="M73.48,95.2c1.19,17.78,10.77,32.57,16.12,48.74c3.41,10.31-0.46,19.17-10.26,23.75
			c-10.88,5.09-23.76-1.77-25.95-13.61c-1.75-9.47,0.84-18.06,4.84-26.36c3.38-7.01,7.27-13.77,10.66-20.78
			C70.71,103.17,71.97,99.13,73.48,95.2z M60.09,138.32c-2.87,6.5-4.3,12.85,0.35,18.86c2.07,2.67,4.59,4.71,8.94,4.15
			C60.32,155.74,58.86,147.57,60.09,138.32z"/>
		<path class="st0" d="M157.01,128c-5.5,7.5-10.81,14.73-16.32,22.25c-3.25-2.36-7.81-4.74-11.05-8.32
			c-2.43-2.68-4.06-6.83-4.37-10.46c-0.29-3.4-1.26-5.31-3.91-7.2c-14.7-10.49-29.26-21.19-43.93-31.71
			c-2.62-1.88-4.44-3.95-2.25-6.91c2.06-2.77,4.53-1.58,6.91,0.15c14.88,10.81,29.83,21.53,44.69,32.36
			c2.16,1.57,3.74,2.31,6.59,0.89c3.98-1.98,8.46-1.62,12.33,0.96C149.83,122.74,153.81,125.71,157.01,128z"/>
		<path class="st0" d="M60.09,138.32c-1.23,9.25,0.23,17.42,9.29,23.01c-4.35,0.56-6.88-1.49-8.94-4.15
			C55.79,151.16,57.22,144.82,60.09,138.32z"/>
	</g>
</g>
</svg>
