<?xml version="1.0" encoding="utf-8"?>
<!-- Generator: Adobe Illustrator 26.3.1, SVG Export Plug-In . SVG Version: 6.00 Build 0)  -->
<svg version="1.1" id="Layer_1" xmlns="http://www.w3.org/2000/svg" xmlns:xlink="http://www.w3.org/1999/xlink" x="0px" y="0px"
	 viewBox="0 0 398.07 388.18" style="enable-background:new 0 0 398.07 388.18;" xml:space="preserve">
<style type="text/css">
	.st0{fill:#04216F;}
</style>
<g>
	<g>
		<path class="st0" d="M57.8,200.64c0.14-81.42,66.1-146.58,148.15-146.35c80.18,0.22,145.51,66.39,145.42,147.31
			c-0.09,80.54-66.3,146.21-147.28,146.07C123.27,347.53,57.66,281.59,57.8,200.64z M205.01,70.96
			c-71.56,0-130.51,58.06-130.61,128.62c-0.1,72.62,57.94,131.44,129.7,131.46c72.24,0.01,130.57-58.3,130.62-130.56
			C334.76,129.57,276.06,70.96,205.01,70.96z"/>
		<path class="st0" d="M220.26,293.05c-16.3,9.38-35.84,2.73-43.67-14.58c-5.56-12.29-10.62-24.82-15.88-37.25
			c-9.65-22.79-19.21-45.62-28.95-68.37c-7.94-18.55-1.47-35.9,16.57-43.83c21.2-9.31,38.11-3.5,46.7,16.34
			c9.34,21.58,18.37,43.31,27.7,64.89c1.44,3.33,1.33,5.26-1.72,7.75c-23.69,19.26-25.11,50.29-3.51,71.99
			C218.37,290.85,219.13,291.78,220.26,293.05z M216.21,204.69c-8.98-21.02-17.37-41.24-26.29-61.22c-3.12-7-9.15-11.21-16.67-13.52
			c-9.51-2.93-17.81,0.19-25.93,4.35c-12.12,6.21-18.32,20.13-13.44,32.79c7.51,19.48,15.98,38.59,24.27,57.76
			c0.54,1.24,3.46,2.72,4.54,2.28C180.3,219.94,197.8,212.47,216.21,204.69z"/>
		<path class="st0" d="M292.23,255.61c-0.13,22.59-18.24,40.57-40.76,40.46c-22.37-0.11-40.64-18.5-40.59-40.85
			c0.05-22.63,18.63-40.66,41.58-40.35C274.76,215.17,292.35,233.2,292.23,255.61z M290.23,255.18
			c-0.07-16.32-11.71-31.96-27.04-36.38c-17.17-4.94-34.48,1.46-44.03,15.95c-2.95,4.47-2.06,6.51,2.79,8.5
			c18.15,7.44,36.14,15.27,54.22,22.88c11.86,4.99,13.24,4.05,14.05-9.11C290.26,256.41,290.23,255.8,290.23,255.18z"/>
	</g>
</g>
</svg>
