<?xml version="1.0" encoding="utf-8"?>
<!-- Generator: Adobe Illustrator 26.3.1, SVG Export Plug-In . SVG Version: 6.00 Build 0)  -->
<svg version="1.1" id="Layer_1" xmlns="http://www.w3.org/2000/svg" xmlns:xlink="http://www.w3.org/1999/xlink" x="0px" y="0px"
	 viewBox="0 0 398.07 388.18" style="enable-background:new 0 0 398.07 388.18;" xml:space="preserve">
<style type="text/css">
	.st0{fill:#04216F;}
</style>
<path class="st0" d="M203.33,48.99c4.26,3.33,8.45,6.77,12.84,9.93c1.37,0.98,3.27,1.71,4.93,1.72c26.12,0.11,52.25,0.07,78.37,0.09
	c7.84,0.01,11.74,3.93,11.74,11.8c0.01,87.37,0.01,174.75,0,262.12c0,7.63-3.99,11.58-11.67,11.58c-68.8,0-137.59,0-206.39,0
	c-7.68,0-11.65-3.95-11.65-11.59c0-87.28,0-174.56,0-261.83c0-8.26,3.78-12.07,12.04-12.08c26.03-0.02,52.06,0.02,78.08-0.09
	c1.66-0.01,3.57-0.73,4.93-1.71c4.39-3.16,8.57-6.6,12.83-9.93C194.04,48.99,198.69,48.99,203.33,48.99z M107.1,66.92
	c-4.95,0-9.48-0.02-14.01,0c-4.29,0.02-5.36,1.08-5.36,5.28c0,87.45,0,174.91,0.01,262.36c0,4.44,0.98,5.42,5.44,5.53
	c0.87,0.02,1.74,0.02,2.61,0.02c42.18,0,84.36,0,126.54,0c25.73,0,51.47,0,77.2-0.04c4.49-0.01,5.47-1.07,5.47-5.49
	C305,247.13,305,159.68,305,72.23c0-4.22-1.08-5.3-5.34-5.31c-13.93-0.02-27.86-0.01-41.79-0.01c-0.75,0-1.5,0.07-2.55,0.11
	c0,2.93,0.01,5.71,0,8.49c-0.02,4.75-0.63,5.35-5.37,5.35c-17.9,0-35.79,0-53.69,0c-1.11,0-2.22,0-3.43,0c0,1.65,0,2.81,0,3.97
	c0,29.7,0,59.4,0,89.1c0,4.28-0.8,5.08-5.06,5.08c-24.96,0-49.92,0-74.88,0c-5.27,0-5.79-0.52-5.79-5.8c0-34.05,0-68.11,0-102.16
	C107.1,69.82,107.1,68.57,107.1,66.92z M186.45,80.88c-1.34,0-2.39,0-3.44,0c-13.63,0-27.27,0.01-40.9-0.01
	c-3.81,0-4.63-0.84-4.66-4.57c-0.02-3.06,0-6.12,0-9.15c-8.28,0-16.15,0-23.97,0c0,35.31,0,70.37,0,105.55c24.39,0,48.61,0,72.97,0
	C186.45,142.09,186.45,111.68,186.45,80.88z M143.66,74.43c35.28,0,70.32,0,105.32,0c0-2.62,0-4.98,0-7.29
	c-0.4-0.11-0.58-0.2-0.76-0.2c-9.67-0.02-19.35,0.05-29.02-0.12c-1.69-0.03-3.6-0.72-4.99-1.7c-3.87-2.73-7.51-5.77-11.25-8.68
	c-2.54-1.97-10.61-1.96-13.15,0.01c-3.74,2.91-7.39,5.95-11.26,8.67c-1.39,0.98-3.31,1.66-5,1.69c-8.9,0.16-17.8,0.08-26.7,0.08
	c-1.03,0-2.05,0-3.19,0C143.66,69.59,143.66,71.88,143.66,74.43z"/>
<path class="st0" d="M233.47,130.83c-11-11.54-12.03-23.08-3.14-31.84c8.2-8.08,20.75-8.11,28.95-0.06
	c8.91,8.74,7.89,20.35-3.12,31.91c2.92,0,5.47-0.02,8.02,0c10.25,0.08,18.87,8.14,19.18,18.34c0.26,8.7,0.07,17.41,0.1,26.12
	c0.01,2.04-0.82,3.52-2.9,3.62c-2.33,0.11-3.18-1.53-3.18-3.62c-0.03-7.45,0.03-14.9-0.05-22.35c-0.02-2.2-0.08-4.5-0.7-6.59
	c-1.75-5.93-6.38-9.36-12.79-9.41c-12.77-0.11-25.54-0.13-38.31,0.02c-7.52,0.09-12.88,5.42-13.13,13.08
	c-0.25,7.83-0.08,15.67-0.13,23.51c-0.01,2.28,0.42,4.96-2.9,5.39c-2.2,0.28-3.17-1.49-3.17-5.38c0-7.55-0.04-15.09,0.01-22.64
	c0.08-11.8,8.38-20.06,20.12-20.09C228.55,130.83,230.77,130.83,233.47,130.83z M259.1,113.53c0.09-7.96-6.24-14.43-14.18-14.51
	c-7.76-0.07-14.27,6.29-14.36,14.04c-0.1,8.14,6.29,14.68,14.33,14.66C252.69,127.7,259.01,121.4,259.1,113.53z"/>
<path class="st0" d="M219.84,223.2c20.11,0,40.22,0,60.33,0c0.68,0,1.35-0.02,2.03,0.02c1.89,0.09,3.22,1,3.28,2.95
	c0.07,2.14-1.35,3.06-3.34,3.2c-0.67,0.05-1.35,0.02-2.03,0.02c-40.32,0-80.63,0-120.95-0.01c-0.96,0-2.18,0.26-2.83-0.22
	c-1.02-0.75-2.23-1.98-2.29-3.07c-0.05-0.89,1.32-2.09,2.34-2.72c0.71-0.44,1.88-0.18,2.85-0.18
	C179.43,223.2,199.63,223.2,219.84,223.2z"/>
<path class="st0" d="M219.48,271.3c-20.02,0-40.03,0-60.05,0c-0.87,0-1.75,0.05-2.61-0.06c-1.71-0.22-2.89-1.05-2.96-2.96
	c-0.07-1.91,1.05-2.82,2.77-3.1c0.85-0.14,1.73-0.11,2.6-0.11c40.32-0.01,80.64-0.01,120.96-0.01c0.39,0,0.77,0,1.16,0
	c2.09,0.04,4.08,0.48,4.11,3.02c0.03,2.67-1.94,3.21-4.21,3.21c-16.63-0.01-33.26-0.01-49.89,0
	C227.41,271.3,223.44,271.3,219.48,271.3z"/>
<path class="st0" d="M219.26,313.16c-20.11,0-40.22,0-60.33,0c-0.87,0-1.99,0.28-2.55-0.15c-1.02-0.78-2.25-1.95-2.34-3.05
	c-0.07-0.86,1.29-2.09,2.28-2.72c0.71-0.45,1.88-0.22,2.84-0.22c40.12,0,80.24,0,120.37,0.01c1.16,0,2.48-0.25,3.43,0.23
	c1.04,0.52,2.45,1.8,2.39,2.65c-0.08,1.1-1.31,2.33-2.35,3.07c-0.65,0.47-1.87,0.18-2.84,0.18
	C259.86,313.17,239.56,313.16,219.26,313.16z"/>
<path class="st0" d="M142.36,226.47c-0.11,9.62-8.05,17.47-17.64,17.47c-9.63,0-17.72-8.22-17.59-17.86
	c0.12-9.72,8.14-17.47,17.99-17.39C134.64,208.77,142.47,216.84,142.36,226.47z M124.83,237.72c6.36-0.04,11.35-5.06,11.36-11.43
	c0.01-6.48-5.09-11.47-11.66-11.39c-6.33,0.07-11.28,5.18-11.21,11.56C113.39,232.8,118.45,237.75,124.83,237.72z"/>
<path class="st0" d="M142.35,268.82c-0.07,9.61-7.97,17.48-17.58,17.51c-9.66,0.03-17.65-8.03-17.64-17.79
	c0.01-9.54,8.04-17.5,17.62-17.46C134.56,251.11,142.43,259.04,142.35,268.82z M124.85,257.27c-6.42-0.04-11.48,4.9-11.53,11.24
	c-0.06,6.39,4.89,11.52,11.18,11.6c6.55,0.08,11.69-4.93,11.69-11.4C136.2,262.31,131.23,257.3,124.85,257.27z"/>
<path class="st0" d="M124.75,327.68c-9.77-0.03-17.67-7.99-17.62-17.74c0.05-9.58,8.05-17.47,17.66-17.42
	c9.69,0.06,17.57,7.88,17.57,17.45C142.36,319.82,134.52,327.7,124.75,327.68z M113.32,310.1c0,6.48,5.09,11.45,11.67,11.42
	c6.29-0.03,11.27-5.18,11.2-11.58c-0.07-6.32-5.18-11.34-11.52-11.31C118.38,298.66,113.32,303.77,113.32,310.1z"/>
<path class="st0" d="M226.53,166.26c0,3,0.01,5.99,0,8.99c-0.01,2.11-0.87,3.72-3.15,3.68c-2.12-0.03-2.98-1.59-2.98-3.56
	c-0.02-6.09-0.03-12.18,0.01-18.27c0.01-1.93,1.04-3.19,3-3.19c2.08,0,3.13,1.27,3.13,3.36
	C226.53,160.27,226.53,163.27,226.53,166.26z"/>
<path class="st0" d="M263.13,166.21c0-2.99,0-5.99,0-8.98c0-2.1,1.05-3.37,3.14-3.32c1.95,0.05,2.91,1.32,2.92,3.26
	c0.02,6.09,0.05,12.17,0.04,18.26c0,1.99-0.9,3.51-3.02,3.49c-2.28-0.01-3.1-1.6-3.08-3.73
	C263.14,172.2,263.13,169.21,263.13,166.21z"/>
<path class="st0" d="M139.59,142.7c-5.85,0-11.25,0.01-16.65,0c-4.4-0.01-5.01-0.64-5.02-5.05c0-3.68-0.02-7.35,0-11.03
	c0.02-3.89,0.63-4.48,4.62-4.5c4.64-0.02,9.29,0,13.93-0.01c0.94,0,1.89-0.08,3.11-0.13c0-5.58,0-10.97,0-16.36
	c0-4.63,0.72-5.33,5.42-5.34c3.29-0.01,6.58-0.01,9.87,0c4.71,0.01,5.43,0.71,5.43,5.32c0.01,5.39,0,10.79,0,16.52
	c5.84,0,11.42-0.01,17,0c4.12,0.01,4.65,0.56,4.67,4.74c0.01,3.48,0.01,6.96,0,10.45c0,4.86-0.5,5.38-5.26,5.39
	c-4.45,0.01-8.9-0.01-13.35,0.01c-0.94,0-1.89,0.08-3.06,0.14c0,5.74,0.01,11.24,0,16.73c-0.01,4.04-0.88,4.91-4.95,4.92
	c-3.68,0.01-7.35,0.02-11.03,0c-3.84-0.02-4.72-0.91-4.74-4.84C139.57,154.15,139.59,148.65,139.59,142.7z M175.85,128.2
	c-4.96,0-9.58,0-14.21,0c-7.54,0-7.54,0-7.54-7.52c0-4.69,0-9.38,0-14.02c-3.01,0-5.57,0-8.29,0c0,4.15-0.01,8.11,0,12.06
	c0.04,10.09,0.71,9.53-9.35,9.48c-4.03-0.02-8.07,0-12.23,0c0,2.96,0,5.59,0,8.41c5.36,0,10.48,0,15.6,0c5.57,0,5.98,0.41,5.98,5.87
	c0,5.19,0,10.38,0,15.61c2.93,0,5.48,0,8.29,0c0-1.14,0-2.08,0-3.03c0-4.64-0.02-9.28,0.01-13.92c0.02-3.56,0.95-4.5,4.42-4.53
	c3.67-0.03,7.35-0.01,11.02-0.01c2.08,0,4.16,0,6.3,0C175.85,133.61,175.85,131.12,175.85,128.2z"/>
</svg>
