<?xml version="1.0" encoding="utf-8"?>
<!-- Generator: Adobe Illustrator 26.3.1, SVG Export Plug-In . SVG Version: 6.00 Build 0)  -->
<svg version="1.1" id="Layer_1" xmlns="http://www.w3.org/2000/svg" xmlns:xlink="http://www.w3.org/1999/xlink" x="0px" y="0px"
	 viewBox="0 0 398.07 388.18" style="enable-background:new 0 0 398.07 388.18;" xml:space="preserve">
<style type="text/css">
	.st0{fill:#04216F;}
</style>
<path class="st0" d="M197.45,338.58c-80.8-0.51-144.84-65.62-144.23-146.67c0.6-79.54,66.29-143.23,147.12-142.62
	c78.66,0.59,142.94,66.29,142.37,145.52C342.13,274.65,277.04,339.08,197.45,338.58z M60.2,193.21
	c-0.19,76.12,61.1,138.11,136.78,138.36c76.73,0.25,138.64-61.09,138.77-137.5c0.13-75.64-61.46-137.62-136.98-137.86
	C122.48,55.97,60.38,117.36,60.2,193.21z"/>
<path class="st0" d="M143.81,255.2c-6.46-9.8-7.25-19.56-1.9-29.19c4.05-7.3,9.09-14.06,13.88-20.92
	c8.89-12.71,17.97-25.29,26.82-38.03c0.78-1.12,1.1-3.41,0.49-4.51c-5.55-9.94-11.32-19.75-17.09-29.56
	c-2.12-3.6-2.86-3.65-5.95-0.93c-9.52,8.35-23.67,6.64-30.81-3.83c-4.05-5.93-5.76-12.51-4.29-19.62
	c2.07-10.01,8.47-16.06,17.84-17.21c9.68-1.19,19.11,3.74,23.21,12.48c2.22,4.75,3.99,9.71,5.89,14.61
	c4.48,11.56,11.27,21.38,21.21,28.99c3.04,2.33,5.35,2.63,8.57,0.21c10.31-7.75,17.57-17.65,22.21-29.61
	c2.03-5.24,3.91-10.59,6.48-15.57c5.22-10.14,17.87-14.47,28.38-10.11c10.14,4.2,15,16.16,11.46,28.18
	c-3.25,11.04-14.15,18.27-24.74,15.77c-3.6-0.85-6.99-3.16-10.09-5.36c-2.31-1.64-3.62-1.71-5.08,0.73
	c-6.1,10.2-12.37,20.3-18.23,30.64c-0.72,1.27,0.15,4.1,1.18,5.59c10.76,15.53,21.72,30.91,32.56,46.38
	c2.79,3.99,5.66,7.99,7.92,12.28c4.43,8.37,4.66,17,0.35,25.58c-1.75,3.49-2.44,3.54-4.76,0.37c-15.96-21.8-31.91-43.61-47.87-65.42
	c-1.1-1.5-2.23-2.98-3.86-5.16C179.6,206.48,161.89,230.59,143.81,255.2z M147.52,127.19c7-0.04,12.51-5.27,12.41-11.8
	c-0.11-7.8-7.02-14.59-14.74-14.48c-6.52,0.09-11.29,5.33-11.28,12.38C133.93,121.15,139.88,127.23,147.52,127.19z M261.85,112.92
	c0.2-6.89-4.63-12.33-11.18-12.59c-7.22-0.29-14.54,6.76-14.77,14.22c-0.2,6.43,4.91,11.86,11.33,12.06
	C255.61,126.86,261.61,121.25,261.85,112.92z"/>
<path class="st0" d="M163.33,264.34c0-2.88,0.2-5.77-0.05-8.63c-0.31-3.63,0.73-5.31,4.73-4.92c3.59,0.35,7.26-0.05,10.88,0.11
	c2.66,0.12,3.53-0.94,3.43-3.51c-0.15-4,0.06-8.01-0.07-12.01c-0.07-2.37,0.73-3.4,3.21-3.36c7.01,0.09,14.01,0.1,21.02-0.01
	c2.48-0.04,3.31,0.94,3.2,3.33c-0.14,3.12-0.06,6.25-0.03,9.38c0.07,6.8-0.81,6.07,6.32,6.14c3.13,0.03,6.26,0.09,9.38-0.03
	c2.19-0.09,3.18,0.58,3.15,2.95c-0.1,7.13-0.09,14.26-0.01,21.4c0.03,2.26-0.82,3.13-3.08,3.08c-4.13-0.1-8.26,0.09-12.39-0.06
	c-2.64-0.1-3.53,0.93-3.43,3.51c0.16,4.12-0.03,8.26,0.06,12.39c0.04,2.05-0.69,2.95-2.82,2.93c-7.26-0.06-14.51-0.07-21.77,0
	c-2.18,0.02-2.83-1-2.8-2.98c0.06-4.25-0.07-8.51,0.04-12.76c0.06-2.28-0.85-3.13-3.09-3.07c-4,0.1-8.01-0.1-12.01,0.06
	c-2.83,0.12-4.15-0.7-3.93-3.79C163.52,271.11,163.33,267.72,163.33,264.34z"/>
</svg>
