<?xml version="1.0" encoding="utf-8"?>
<!-- Generator: Adobe Illustrator 26.3.1, SVG Export Plug-In . SVG Version: 6.00 Build 0)  -->
<svg version="1.1" id="Layer_1" xmlns="http://www.w3.org/2000/svg" xmlns:xlink="http://www.w3.org/1999/xlink" x="0px" y="0px"
	 viewBox="0 0 398.07 388.18" style="enable-background:new 0 0 398.07 388.18;" xml:space="preserve">
<style type="text/css">
	.st0{fill:#04216F;}
</style>
<g>
	<g>
		<path class="st0" d="M245.44,243.06c-2.94,3.73-5.23,6.81-7.7,9.75c-25.56,30.34-61.72,15.55-74.67-6.46
			c-6.09-10.34-3.01-18.09,8.41-22.19c11.81-4.24,19.96-11.75,23.1-24.3c1.67-6.66,7.84-10.7,13.46-9.43
			c6.51,1.47,10.19,7.85,8.75,15.1c-2.65,13.42-9.86,23.85-20.79,31.88c-1.63,1.2-3.11,2.61-4.75,4c8.18,7.12,19.94,6.31,27.26-1.75
			c3.16-3.49,5.58-7.69,8.07-11.74c8.1-13.18,20.15-15.62,31.43-5.22c5.8,5.34,10.54,12.08,14.77,18.81
			c3.97,6.33,1.94,13.45-3.43,16.64c-5.9,3.5-12.14,1.54-16.62-5.07C250.58,249.89,248.23,246.87,245.44,243.06z"/>
		<path class="st0" d="M152.9,216.79c-18.52,0.01-33.93-15.57-33.68-34.06c0.23-17.73,16.09-33.06,34.21-33.07
			c18.11-0.01,33.78,15.41,33.83,33.28C187.3,202.01,172.31,216.78,152.9,216.79z"/>
		<path class="st0" d="M249.37,111.28c-12.85-1.59-25.7-3.1-38.54-4.79c-10.11-1.34-15.24,0.75-16.44,7.03
			c-1.13,5.92,2.91,8.71,12.21,12.36c14.65,5.74,29.97,11.04,42.88,19.7c19.44,13.03,39.63,19.89,62.93,18.3
			c8.6-0.59,17.28-0.09,25.92-0.09c0.22,0.63,0.44,1.25,0.66,1.88c-1.99,0.88-3.99,2.54-5.97,2.52
			c-15.61-0.16-31.45,0.88-46.74-1.53c-10.72-1.7-21.45-7.01-30.81-12.89c-16.85-10.58-33.98-19.92-53.38-24.95
			c-3.65-0.95-7.82-3.6-9.7-6.7c-2.63-4.35-5.51-4.47-9.62-3.89c-15.25,2.13-30.52,4.16-45.8,6.07c-9.54,1.2-15.59-2.58-17.44-10.52
			c-1.72-7.4,2.2-13.64,10.91-16.61c30.17-10.27,60.33-20.6,90.62-30.5c15.26-4.99,29.2-0.78,41.65,8.53
			c10.07,7.53,19.95,15.36,29.55,23.48c8.72,7.38,18.19,11.45,29.79,9.83c3.2-0.45,6.53-0.43,9.75-0.12
			c2.24,0.21,4.4,1.26,6.32,3.03c-15.66,0.37-31.72,5.31-45.54-7.04c-9.2-8.22-19.37-15.36-29.01-23.09
			c-13.98-11.2-28.78-15.33-46.58-8.85c-27.5,10.02-55.46,18.8-83.22,28.1c-1.03,0.34-2.06,0.69-3.08,1.05
			c-5.54,1.97-7.93,5.89-6.82,11.65c0.97,5.02,5.63,7.8,11.51,7.02c16.12-2.13,32.26-4.17,48.33-6.66c2.46-0.38,5.4-2.49,6.68-4.65
			c3.51-5.91,8.25-8.64,15.02-8.13c9.74,0.73,19.6,0.7,29.17,2.38c5.38,0.94,10.27,4.66,15.38,7.13
			C249.78,110.63,249.57,110.95,249.37,111.28z"/>
		<path class="st0" d="M37.35,314.47c14.88,1.33,30.58-4.27,44.18,7.63c9.94,8.7,20.78,16.36,31.13,24.59
			c13.72,10.92,28.35,14.48,45.54,8.29c28.14-10.13,56.63-19.31,84.97-28.91c6.74-2.28,9.65-6.45,8.39-11.86
			c-1.26-5.39-5.77-7.82-12.77-6.9c-15.48,2.03-30.96,4.12-46.46,6c-3.75,0.46-6.23,1.6-7.88,5.41c-2.36,5.45-7.11,8.13-13.12,7.76
			c-10.39-0.64-20.88-0.82-31.09-2.57c-5.32-0.91-10.13-4.78-14.54-7.99c14.12,1.78,28.23,3.68,42.37,5.29
			c7.5,0.86,12.04-2.05,12.93-7.65c0.86-5.41-2.16-9.18-9.35-11.08c-18.65-4.92-35.89-12.81-51.6-24.05
			c-14.77-10.57-31.06-16.01-49.43-15.06c-9.09,0.47-18.22,0.1-27.34,0.05c-2.07-0.01-4.13-0.27-6.2-0.41
			c-0.13-0.54-0.26-1.08-0.4-1.62c1.66-0.8,3.32-2.29,4.98-2.28c14.52,0.06,29.05,0.05,43.55,0.75
			c11.98,0.58,22.81,5.25,32.55,12.06c17.59,12.29,36.46,21.67,57.28,27.2c3.2,0.85,6.82,3.58,8.35,6.46
			c2.16,4.06,4.67,4.25,8.39,3.72c15.66-2.23,31.33-4.42,47.02-6.42c9.25-1.18,15.34,2.9,17.12,10.97
			c1.57,7.1-2.9,13.63-11.36,16.47c-29.4,9.85-58.89,19.44-88.18,29.61c-16.47,5.72-30.82,1.57-44.05-8.07
			c-11.39-8.29-22.3-17.25-33.25-26.13c-6.19-5.02-12.85-7.64-20.96-6.93c-5.16,0.45-10.42,0.23-15.61-0.08
			c-1.97-0.12-3.88-1.33-5.82-2.05C36.91,315.95,37.13,315.21,37.35,314.47z"/>
	</g>
</g>
</svg>
