<?xml version="1.0" encoding="utf-8"?>
<!-- Generator: Adobe Illustrator 26.3.1, SVG Export Plug-In . SVG Version: 6.00 Build 0)  -->
<svg version="1.1" id="Layer_1" xmlns="http://www.w3.org/2000/svg" xmlns:xlink="http://www.w3.org/1999/xlink" x="0px" y="0px"
	 viewBox="0 0 398.07 388.18" style="enable-background:new 0 0 398.07 388.18;" xml:space="preserve">
<style type="text/css">
	.st0{fill:#04216F;}
</style>
<g>
	<g>
		<path class="st0" d="M107.6,106.51c-3.86-15.9,2.96-24.82,19.3-25.05c15.99-0.22,32-0.34,47.98,0.08
			c13.27,0.34,21.83,9.71,19.07,20.04c-0.71,2.64-1.85,5.17-2.95,8.2c13.48,8.26,21.44,20.53,23.26,35.59
			c1.31,10.85,0.45,22.13-0.78,33.07c-1.49,13.3-4.67,26.41-6.59,39.68c-1.76,12.22-6.3,16.6-18.67,16.68
			c-11.05,0.07-22-0.69-32.77,3.94c-4.6,1.98-11.54,1.81-16.16-0.22c-9.64-4.24-19.36-3.91-29.29-3.75
			c-15.54,0.24-19.49-3.47-21.68-18.86c-1.83-12.85-4.04-25.65-6.6-38.37c-5.24-26.07,1.56-48.2,20.86-66.49
			C104.25,109.46,105.99,107.96,107.6,106.51z M176.04,228.25c4.35,0,8.97-0.1,13.59,0.03c6.47,0.18,9.63-2.67,10.57-9.26
			c1.96-13.77,5.08-27.39,6.7-41.19c1.25-10.68,2.24-21.7,0.98-32.29c-1.45-12.24-7.96-22.49-20-29.84
			c-1.57,13.27-10.28,10.17-18.64,9.77c-12.96-0.63-26.01-0.73-38.95,0.15c-13.07,0.88-13.02,1.51-18.35-10.1
			c-0.35-0.77-0.99-1.4-1.8-2.51c-18.81,15.7-26.32,35.37-22.93,59.01c2.33,16.24,5.18,32.43,8.56,48.47
			c0.62,2.96,4.59,6.69,7.61,7.34c5.49,1.19,11.42,0.34,19.3,0.34c-10.87-9.86-8.13-25.42-20.05-33c-1.37-0.87-2.16-3.04-2.69-4.76
			c-1.95-6.42-4-12.84-5.33-19.39c-0.48-2.39,0.23-5.79,1.76-7.54c0.97-1.12,4.67-0.66,6.77,0.12c25.94,9.6,55.02-2.29,66.7-27.33
			c0.77-1.66,2.6-2.82,3.94-4.21c1.11,1.58,2.94,3.04,3.23,4.75c2.2,13.4,9.25,22.94,21.47,28.96c1.49,0.73,3.15,4.03,2.66,5.38
			c-3.77,10.34-2.51,23.2-14.33,29.69c-0.88,0.48-1.5,1.75-1.88,2.79C182,211.53,179.18,219.48,176.04,228.25z M172.61,146.49
			c-19,23.88-42.65,31.58-71.62,23.71c1.64,6.03,2.64,11.32,4.59,16.23c1.2,3.01,3.88,5.43,5.85,8.15c1.99,2.76,4.3,5.38,5.79,8.4
			c3.15,6.37,4.83,13.71,8.93,19.32c10.47,14.33,28.56,15.18,41.24,2.83c6.58-6.41,9.87-14.42,11.65-23.27
			c0.44-2.19,1.6-5.28,3.27-6.01c10.39-4.55,8.29-15.26,11.82-23.12c0.29-0.65-1.47-2.74-2.69-3.45
			C182.65,164.13,176.89,156.48,172.61,146.49z M150.15,86.46c-9.2,0.63-18.49,1.01-27.71,1.98c-8.5,0.89-11.86,7-8.64,14.88
			c1.66,4.08,3.67,8.03,5.04,12.2c1.2,3.65,3.22,4.05,6.8,3.86c12.27-0.68,24.62-1.67,36.84-0.92c17.37,1.07,17.33,1.68,23.74-14.86
			c3.33-8.61,0.22-14.24-8.89-15.19C168.35,87.47,159.3,87.09,150.15,86.46z"/>
		<path class="st0" d="M147.96,278.06c10.94-10.58,21.64-20.54,31.84-30.98c4-4.09,7.64-5.17,12.92-3.02
			c7.49,3.04,15.36,5.15,22.79,8.32c14.97,6.39,22.26,18.38,23.16,34.3c0.42,7.4,0.19,14.85-0.03,22.27
			c-0.28,9.17-4.82,13.76-13.86,13.77c-51.33,0.07-102.65,0.07-153.98-0.02c-8.79-0.02-13.16-4.61-13.28-13.38
			c-0.1-7.66-0.14-15.32,0-22.98c0.27-15.4,7.53-26.66,21.3-33.17c8.12-3.84,16.84-6.38,25.3-9.5c4.41-1.63,7.8-0.5,11.21,2.9
			C125.84,257.05,136.67,267.21,147.96,278.06z M147.88,316.56c24.62,0,49.25,0.02,73.87-0.01c9.14-0.01,10.31-1.25,10.34-10.5
			c0.02-6.5,0.09-13-0.04-19.5c-0.26-12.83-6.38-22.19-17.79-27.67c-6.87-3.29-14.26-5.48-21.4-8.23c-3.89-1.5-6.85-0.74-9.92,2.35
			c-9.81,9.88-20.08,19.31-29.86,29.22c-3.88,3.93-6.59,3.69-10.35-0.09c-9.99-10.04-20.18-19.88-30.54-29.53
			c-1.69-1.58-5.09-3.03-6.99-2.4c-8.99,2.98-18.04,6.07-26.46,10.33c-7.99,4.04-13.16,11.24-14.2,20.33
			c-0.91,8.03-0.94,16.18-1.04,24.29c-0.12,9.8,1.55,11.38,11.2,11.39C99.1,316.58,123.49,316.56,147.88,316.56z"/>
		<path class="st0" d="M218.04,186.6c7.24,4.53,13.67,10.43,21.21,12.89c18.45,6.01,37.73-6.34,42.82-26.38
			c1.18-4.64,2.11-8.71,7.08-11.02c1.95-0.91,3.33-3.78,4.23-6.06c1.36-3.43,1.71-7.27,3.15-10.66c2.64-6.23,2.12-10.05-4.1-14.83
			c-5.95-4.56-9.28-12.52-13.94-19.25c-33,15.6-62.59,16.84-72.83,0.76c3.55,0.54,6.09,0.51,8.34,1.32
			c22.6,8.15,43.3,4.2,62.65-9.36c1.91-1.34,5.25-3.26,6.34-2.53c1.86,1.23,2.61,4.3,3.54,6.7c1.94,5.01,3.7,10.09,5.54,15.14
			c0.94-0.18,1.89-0.35,2.83-0.53c0-11.34,0.67-22.75-0.38-33.99c-0.35-3.73-4.95-7.18-7.9-10.5c-1.5-1.7-4.03-2.52-5.42-4.27
			c-14.23-17.91-32.97-16.94-52.01-11.63c-13.88,3.87-23.37,13.83-29.26,27.1c-4.83-5.54-4.86-5.56-1.47-10.9
			c17.47-27.51,51.47-30.3,75.39-20.01c3.05,1.31,5.41,4.26,8.06,6.48c3.5,2.94,6.81,6.12,10.49,8.81
			c5.87,4.3,8.96,10.13,9.29,17.14c0.38,8.1,0.12,16.24-0.05,24.36c-0.12,5.73-1.49,11.63,3.3,16.39c0.59,0.58,1.09,1.85,0.87,2.56
			c-3.68,11.67-3.09,25-13.66,34.02c-2.02,1.73-3.29,4.75-4.1,7.42c-8.89,29.12-40.63,40.98-63.66,23.59
			C219.84,195.9,214.51,192.45,218.04,186.6z"/>
		<path class="st0" d="M245.3,287.79c-2.21-6.7,1.73-6.46,5.69-6.45c31.59,0.03,63.18,0.03,94.77,0c9.9-0.01,10.1-0.24,10.14-10.14
			c0.02-3.95,0.13-7.9-0.02-11.84c-0.71-17.76-10.76-31.63-27.65-37c-10.97-3.49-22.21-6.22-33.46-8.67
			c-2.51-0.55-6.35,0.65-8.27,2.44c-8.99,8.38-17.45,17.33-26.25,25.91c-7.89,7.69-16.6,7.57-24.51-0.15
			c-6.31-6.16-12.76-12.21-18.66-18.75c-2.22-2.46-3.07-6.16-4.54-9.3c0.8-0.52,1.61-1.04,2.41-1.56
			c7.45,7.37,14.92,14.71,22.34,22.11c9.41,9.39,12.16,9.41,21.6,0c8.22-8.19,16.25-16.59,24.83-24.38c2.31-2.1,6.65-3.77,9.51-3.14
			c13.34,2.91,26.71,6.01,39.64,10.35c17.66,5.93,28.89,22.97,28.96,41.79c0.02,5.11,0,10.21-0.01,15.32
			c-0.02,10.44-3.02,13.41-13.76,13.44c-20.67,0.04-41.34,0.03-62.02,0.03C272.58,287.79,259.12,287.79,245.3,287.79z"/>
		<path class="st0" d="M319.17,251.12c2.92,1.43,5.77,2.82,8.61,4.2c-2.85,1.59-5.71,3.17-9.2,5.11c-1.02,1.93-2.65,5.02-4.28,8.1
			c-1.32-2.84-2.63-5.68-4.04-8.73c-2.41-1.2-5.52-2.75-8.63-4.29c2.91-1.55,5.83-3.09,8.71-4.63c1.2-2.52,2.62-5.51,4.04-8.5
			C315.96,245.27,317.55,248.16,319.17,251.12z"/>
		<path class="st0" d="M155.33,105.21c-2.05,3-3.58,5.25-5.12,7.5c-1.55-2.42-3.1-4.83-4.83-7.53c-1.82-1.16-4.26-2.71-6.7-4.26
			c2.27-1.4,4.53-2.8,6.87-4.25c1.46-2.08,3.19-4.55,4.92-7.02c1.47,2.31,2.94,4.62,4.65,7.32c1.76,1.1,4.22,2.63,6.67,4.17
			C159.47,102.6,157.15,104.06,155.33,105.21z"/>
		<path class="st0" d="M201.74,293.28c-3.22-1.93-6.18-3.7-9.14-5.48c2.85-1.33,5.71-2.67,8.85-4.13c1.19-2.32,2.76-5.39,4.34-8.46
			c1.56,2.93,3.12,5.86,4.42,8.29c2.92,1.52,5.88,3.06,8.84,4.6c-2.69,1.55-5.38,3.11-8.7,5.02c-1.31,2.09-3.25,5.16-5.18,8.23
			C203.91,298.4,202.66,295.44,201.74,293.28z"/>
	</g>
</g>
</svg>
