<?xml version="1.0" encoding="utf-8"?>
<!-- Generator: Adobe Illustrator 26.3.1, SVG Export Plug-In . SVG Version: 6.00 Build 0)  -->
<svg version="1.1" id="Layer_1" xmlns="http://www.w3.org/2000/svg" xmlns:xlink="http://www.w3.org/1999/xlink" x="0px" y="0px"
	 viewBox="0 0 398.07 388.18" style="enable-background:new 0 0 398.07 388.18;" xml:space="preserve">
<style type="text/css">
	.st0{fill:#04216F;}
</style>
<g>
	<g>
		<path class="st0" d="M345.65,197.9c-0.13,79.16-63.71,141.96-143.06,142.37C124,340.67,58.77,274.23,59.92,195.64
			c1.13-77.63,64.55-141.01,143.01-140.87C282.62,54.91,345.78,118.25,345.65,197.9z M143.88,74.71c-0.36,1.03-0.72,2.06-1.09,3.09
			c1.33,0.64,2.92,1.01,3.95,1.97c8.67,8.11,17.31,16.26,25.8,24.56c2.04,1.99,4.52,4.82,1.27,7.47c-2.9,2.37-4.77-0.5-6.79-2.43
			c-9.09-8.72-18.32-17.3-27.46-25.97c-2.99-2.84-5.7-2.74-9.23-0.52c-55.22,34.68-77.89,105.75-52.88,166.15
			c33.69,81.38,134.59,109.65,205.55,57.6c50.81-37.27,69.31-104.29,44.79-162.25c-25.54-60.36-92.47-94.29-156-78.81
			C162.31,67.89,153.18,71.63,143.88,74.71z"/>
		<path class="st0" d="M136.29,193.6c7.5-5.06,14.3-9.65,20.12-13.58c-4.11-8.27-8.7-15.55-11.45-23.48
			c-3.62-10.45,4.74-21.07,15.8-21.15c1.31-0.01,3.64,1.33,3.71,2.18c0.11,1.44-1.19,3-1.93,4.5c-0.06,0.12-0.34,0.11-0.5,0.19
			c-11.04,5.09-12.81,9.8-6.94,20.58c2.15,3.95,5.33,7.39,8.36,10.78c0.88,0.98,2.89,1.49,4.3,1.37
			c14.13-1.24,15.02-0.79,21.82,12.05c0.4,0.76,1.05,1.38,1.58,2.06c8.68-6.41,8.9-7.01,6.28-16.83
			c-8.64-32.36,15.18-63.45,48.74-63.29c6.33,0.03,12.75,0.97,18.97,2.25c37.07,7.65,46.83,52.17,32.9,75.39
			c-3.56,5.93-7.26,11.88-11.71,17.13c-4.68,5.53-6.94,11.66-6.81,18.58c0.59,30.18-15.02,50.22-40.02,64.37
			c-17.27,9.77-36.01,15.39-55.62,17.64c-18.36,2.11-42.59-6.6-53.28-25.98c-5.85-10.6-7.24-21.33-2.09-32.56
			c1.8-3.92,3.58-7.85,5.54-12.13c-5.98,0.33-11.39,0.91-16.8,0.86c-12.18-0.11-16.33-3.64-17.02-15.78
			c-0.45-7.97,0.05-16.1,1.1-24.02c1.25-9.4,14.7-20.62,24.22-21.06c4.92-0.23,8.09,2.17,9.02,6.99
			C135.34,184.51,135.64,188.47,136.29,193.6z M189.54,233.82c-1.25,2.21-2.43,4.92-4.19,7.17c-0.8,1.02-3.33,1.96-4.04,1.46
			c-1.18-0.83-1.97-2.81-2.08-4.37c-0.09-1.28,1-2.68,1.65-3.98c7.2-14.63,7.62-29.48,1.56-44.57c-3.28-8.17-6.5-9.64-14.88-6.63
			c-1.54,0.55-3.07,1.24-4.42,2.16c-9.21,6.28-18.3,12.73-27.59,18.89c-2.03,1.35-4.73,1.7-7.11,2.51c-0.4-2.35-1.14-4.71-1.11-7.05
			c0.05-4.37,0.91-8.75,0.76-13.11c-0.18-5.31-2.03-6.29-6.57-3.87c-8.77,4.7-14.84,11.23-14.37,22.04
			c0.15,3.47-0.11,6.95-0.04,10.43c0.22,11.06,2.42,13.05,13.58,12.4c0.91-0.05,1.87-0.05,2.72-0.34
			c10.14-3.5,20.22-7.18,30.43-10.46c2.04-0.65,4.57,0.22,6.88,0.39c-1.09,1.97-1.69,4.68-3.35,5.8
			c-8.37,5.62-15.41,12.38-20.08,21.37c-7.22,13.9-5.02,27.59,5.99,38.7c9.12,9.19,20.39,13.74,33.07,13.81
			c23.51,0.12,44.97-7.4,64.68-19.79c19.91-12.52,31.84-29.59,30.63-54.38c-0.41-8.46,2.89-16.14,8.6-23.07
			c5.27-6.4,10.03-13.61,13.29-21.2c9.69-22.56-3.16-51.67-25.69-58.28c-7.41-2.18-15.48-2.82-23.26-2.91
			c-21.39-0.26-39.89,15.81-40.62,37.19c-0.52,15.33,1.91,30.83,3.88,46.14c0.9,7.03,5.39,8.93,12.49,8.03
			c4.5-0.57,9.19-0.89,13.64-0.26c4.24,0.6,8.43,2.26,12.34,4.11c1.22,0.58,1.44,3.28,2.12,5c-1.77,0.45-3.99,1.82-5.22,1.21
			c-7.33-3.65-15.03-2.77-22.66-2.39c-11.6,0.58-17.74-3.86-20.48-15.22c-0.37-1.54-0.99-3.02-1.5-4.52
			c-0.61,0.08-1.22,0.17-1.83,0.25c-1.75,9.47-5.22,19-1.15,28.63c1.51,3.57,4.92,6.9,8.3,8.98c5.25,3.23,11.31,5.11,16.81,7.97
			c1.61,0.83,2.5,3.04,3.72,4.61c-1.99,0.72-4.09,2.23-5.95,1.98c-3-0.41-6.02-1.65-8.72-3.11
			C203.09,241.88,196.61,237.94,189.54,233.82z"/>
		<path class="st0" d="M184.37,127.33c-3.05,3.18-5.23,5.46-7.42,7.74c-1.07-1.44-3.3-3.24-2.98-4.24c0.99-3.12-0.5-8.31,4.89-8.42
			C180.35,122.37,181.88,125,184.37,127.33z"/>
	</g>
</g>
</svg>
