<?xml version="1.0" encoding="utf-8"?>
<!-- Generator: Adobe Illustrator 26.3.1, SVG Export Plug-In . SVG Version: 6.00 Build 0)  -->
<svg version="1.1" id="Layer_1" xmlns="http://www.w3.org/2000/svg" xmlns:xlink="http://www.w3.org/1999/xlink" x="0px" y="0px"
	 viewBox="0 0 398.07 388.18" style="enable-background:new 0 0 398.07 388.18;" xml:space="preserve">
<style type="text/css">
	.st0{fill:#04216F;}
</style>
<g>
	<path class="st0" d="M226.6,69.08c30.7,18.72,7.23,31.8-11.87,46.94c10.61,3.29,16.34,5.1,22.08,6.85
		c54.93,16.74,89.89,72.57,83.19,129.5c-3.53,29.94-3.53,60.3-5.15,90.87c7.56,2.65,13.02,4.57,18.47,6.48
		c-0.18,1.45-0.35,2.9-0.53,4.35c-81.78,0-163.56,0-245.34,0c-0.16-1.77-0.32-3.53-0.48-5.3c18.39,0,36.78,0,55.17,0
		c0.66-1.78,1.31-3.56,1.97-5.35c-26.29-19.96-50.61-41.26-56.8-77.9c31.12,0,60.59,0,90.06,0c0.25,2.01,0.49,4.03,0.74,6.04
		c-11.78,1.26-23.55,2.52-37.94,4.06c12.57,20.63,29.45,30.17,50.11,33.09c3.51,0.5,9.99-4.27,11.52-8.05
		c12.11-29.94,19.92-36.82,51.84-36.57c15.64,0.12,19.48-7.27,20.73-20.24c3.32-34.17-18.69-66.78-51.65-77.4
		c-14.93-4.81-26.05-2.52-27.65,14.28c-2.19,23.02-25.43,29.21-34.95,46.3c-1.28,2.3-13.12,0.88-18.45-1.91
		c-4.18-2.18-7.15-8.83-8.43-14.05c-9.76-39.63,13.46-72.17,23.35-107.66c2.48-8.89,1.97-19.02,0.94-28.38
		c-1.35-12.35,2.42-19.39,15.11-21.4c5.03-0.79,13.42-2.02,14.19-4.75c7.01-24.95,21.52-10.53,33.89-7.24
		C239.46,46.64,225.4,58.85,226.6,69.08z M212.9,346.91c28.52,0,55.58,0.46,82.58-0.52c3.85-0.14,10.15-6.93,10.76-11.28
		c8.25-58.97,5.3-62.13-53.59-61.34c-3.79,0.05-8.69-1.23-11.16,0.64c-9.94,7.48-23.97,14.31-27.41,24.46
		C209.36,312.79,212.9,329.5,212.9,346.91z M283.58,260.62c21.91,6.03,25.62,3.54,27.16-18.26c3.38-47.85-29.52-95.45-75.89-109.8
		c-20.89-6.46-23.33-4.75-26.87,18.8C265.72,166.06,290.48,201.4,283.58,260.62z M212.27,102.68c-8.2-3.26-13.73-4.76-18.55-7.5
		c-15.73-8.95-23.66-3.51-28.53,12.9c-5.38,18.12-13.02,35.55-18.86,53.55c-2.16,6.65-4.87,18.71-2.33,20.3
		c9.32,5.82,20.66,8.56,31.47,11.66c1.51,0.43,5.44-3.21,6.34-5.66C191.97,160.2,201.75,132.32,212.27,102.68z M199.08,344.39
		c5.5-16.1,1.42-22.07-14.78-27.61c-18.07-6.18-35.6-18.13-49.24-31.71c-11.29-11.24-20.31-13.46-33.78-8.66
		C114.51,317.31,157.26,346.93,199.08,344.39z M170.48,61.97c-1.45,3.84-2.9,7.67-4.35,11.51c19.14,6.9,38.25,13.92,57.51,20.49
		c1.41,0.48,4.84-1.84,5.63-3.61c0.75-1.69-0.11-5.91-1.32-6.39C208.89,76.38,189.66,69.22,170.48,61.97z"/>
</g>
</svg>
