<?xml version="1.0" encoding="utf-8"?>
<!-- Generator: Adobe Illustrator 26.3.1, SVG Export Plug-In . SVG Version: 6.00 Build 0)  -->
<svg version="1.1" id="Layer_1" xmlns="http://www.w3.org/2000/svg" xmlns:xlink="http://www.w3.org/1999/xlink" x="0px" y="0px"
	 viewBox="0 0 398.07 388.18" style="enable-background:new 0 0 398.07 388.18;" xml:space="preserve">
<style type="text/css">
	.st0{fill:#04216F;}
</style>
<g>
	<g>
		<path class="st0" d="M238.31,304.78c-5.73,8.18-11.25,15.58-16.22,23.34c-2.76,4.31-5.92,6.16-11.12,5.89
			c-8.35-0.42-16.75-0.03-25.12-0.16c-1.87-0.03-3.74-0.78-5.6-1.2c0.72-1.91,1.07-4.09,2.22-5.69
			c15.52-21.57,31.47-42.82,46.62-64.64c9.41-13.56,17.64-27.94,26.28-41.75c-8.04-7.92-20.2-7.95-31.41-0.35
			c3.04,5.79,6.28,11.6,9.13,17.6c0.75,1.57,0.3,3.72,0.4,5.6c-1.43-1.1-3.44-1.91-4.19-3.36c-5.51-10.63-10.77-21.38-16.03-31.93
			c-8.19,8.26-11.01,26.18-5.26,37.61c2.94,5.84,6.55,11.35,9.63,17.12c0.63,1.18,0.24,2.91,0.32,4.39
			c-1.41-0.73-3.43-1.09-4.14-2.25c-3.71-6.04-7.5-12.09-10.5-18.5c-4.38-9.37-4.12-19.06-0.17-28.62
			c2.16-5.21,4.85-10.24,6.54-15.6c3.03-9.6,10.06-14.47,19.06-16.98c10.21-2.85,20.23-1.89,29.62,3.23
			c5.06,2.75,9.04,6.34,10.69,12.39c1.62,5.94,4.28,11.59,6.41,17.4c3.47,9.49,3.63,19.04-1.05,28.08
			c-4.51,8.71-9.55,17.17-14.74,25.51c-1.92,3.08-2.11,5.2,0.07,8.21c11.19,15.49,22.2,31.1,33.17,46.74
			c1.16,1.65,1.68,3.74,2.5,5.63c-2.03,0.47-4.05,1.31-6.08,1.34c-8.92,0.14-17.86,0.3-26.76-0.13c-2.45-0.12-5.57-1.69-7.04-3.62
			c-4.72-6.22-8.8-12.93-13.15-19.43C241.22,308.89,239.98,307.18,238.31,304.78z M186.74,329.3c9.61,0,18.11,0.1,26.59-0.11
			c1.3-0.03,3.03-1.22,3.79-2.38c17.18-26.12,34.37-52.23,51.29-78.51c8.98-13.94,4.36-27.34-2.47-40.89
			C245.72,251.87,215.75,289.45,186.74,329.3z M254.32,280.63c-4.19,6.33-8.12,11.99-11.66,17.88c-0.67,1.12-0.28,3.5,0.5,4.75
			c3.73,6.04,8.25,11.63,11.55,17.88c3.52,6.68,8.2,9.24,15.69,8.33c5.76-0.7,11.66-0.14,18.4-0.14
			C276.94,312.58,265.91,297,254.32,280.63z M257.71,215.1c1.65-5.46,3.37-10.16,4.37-15.01c0.3-1.47-0.91-3.87-2.19-4.96
			c-10.51-8.97-29.4-9.05-39.97-0.24c-1.24,1.03-2.74,3.05-2.51,4.32c0.95,5.36,2.5,10.6,4.02,16.64
			C233.91,208.54,245.34,207.94,257.71,215.1z"/>
		<path class="st0" d="M128.93,69.11c3.89,0,7.35-0.24,10.76,0.09c1.88,0.18,3.67,1.32,5.5,2.03c-1.73,0.78-3.39,1.92-5.2,2.26
			c-2.11,0.4-4.35,0.09-6.54,0.12c-2.63,0.03-5.69-0.79-6.1,3.41c-0.05,0.5-1.79,1.39-2.01,1.21c-0.86-0.7-1.84-1.69-2.03-2.71
			c-1.92-10.76,6.32-22.04,17.35-22.27c22.38-0.47,44.79-0.41,67.18,0.04c9.68,0.2,17.11,8.28,17.17,17.96
			c0.2,34.05,0.13,68.09,0.02,102.14c0,1.38-1.44,2.75-2.21,4.13c-0.73-1.62-2.1-3.23-2.11-4.85c-0.13-30.77-0.25-61.54,0.03-92.31
			c0.05-5.55-1.37-7.05-6.96-6.91c-16.56,0.4-33.14,0.14-49.71,0.13c-1.45,0-2.97,0.13-4.34-0.22c-0.84-0.22-1.48-1.24-2.21-1.91
			c0.67-0.72,1.24-1.84,2.05-2.07c1.36-0.39,2.88-0.25,4.33-0.25c16.39-0.01,32.78,0,49.16,0c1.98,0,3.95,0,5.94,0
			c-0.21-6.32-4.95-11.29-11.79-11.37c-22.03-0.24-44.06-0.2-66.09,0.07C134.75,57.92,130.42,62.24,128.93,69.11z"/>
		<path class="st0" d="M193.56,140.51c0,9.09,0.08,18.18-0.02,27.27c-0.13,11.26-7.54,18.09-19.4,18.06
			c-11.27-0.03-18.82-7.1-18.9-18.06c-0.13-18-0.12-35.99-0.01-53.99c0.07-11.56,7.27-18.43,18.95-18.44
			c12.23-0.02,19.27,6.63,19.39,18.45c0.09,8.91,0.02,17.82,0.02,26.72C193.57,140.51,193.56,140.51,193.56,140.51z M159.72,158.84
			c0,3.02,0.06,5.17-0.01,7.31c-0.21,6.16,1.62,11.51,7.75,13.64c5.94,2.06,12.28,2.4,17.54-2.14c5.28-4.56,4.23-10.86,3.84-16.81
			c-0.05-0.72-1.71-1.89-2.64-1.91C177.68,158.77,169.16,158.84,159.72,158.84z M174.39,120.19c3.63,0,7.28,0.19,10.89-0.1
			c1.28-0.1,3.23-1.12,3.58-2.15c2.17-6.56-1.32-14.54-7.51-16.92c-5.69-2.18-11.5-2.12-16.63,1.62c-4.82,3.52-5.51,8.82-4.82,14.22
			c0.16,1.24,2.25,3.01,3.62,3.18C167.09,120.48,170.76,120.18,174.39,120.19z M174.43,137.18c3.44,0,6.89-0.2,10.31,0.04
			c5.59,0.39,4.19-3.58,4.31-6.58c0.12-3.08,0.67-6.28-4.36-6.04c-6.5,0.31-13.04,0.33-19.54,0c-4.35-0.22-5.66,1.31-5.54,5.55
			c0.2,7.02-0.04,7.03,7.2,7.03C169.37,137.18,171.9,137.18,174.43,137.18z M160.72,154.33c6.81,0,13.69,0.01,20.56,0
			c8.24-0.02,8.11-0.03,7.87-8.54c-0.09-3.04-1-4.17-4.12-4.04c-5.25,0.22-10.52,0.06-15.79,0.06c-10.47,0-10.47,0-9.33,10.63
			C159.94,152.78,160.18,153.1,160.72,154.33z"/>
		<path class="st0" d="M127.75,219.64c-0.01,21.48-0.02,42.96,0,64.44c0.01,13.12,5.03,18.2,18.1,18.26
			c12.2,0.05,24.4-0.08,36.59,0.14c1.71,0.03,3.39,1.63,5.08,2.51c-1.67,0.7-3.34,1.99-5.03,2.01c-12.74,0.17-25.48,0.19-38.23,0.07
			c-13.39-0.13-21-7.83-21.01-21.13c-0.03-44.05-0.05-88.1,0.08-132.15c0.01-2.27,1.51-4.53,2.32-6.79c0.7,2.19,1.99,4.38,2,6.58
			C127.82,175.59,127.76,197.62,127.75,219.64z"/>
		<path class="st0" d="M139.24,116.68c-0.59,11.37-7.41,21.12-18.08,25.33c-10.77,4.25-22.83,1.37-30.84-7.38
			c-7.31-7.98-9.47-19.51-3.9-29.32c5.8-10.21,12.77-19.78,19.6-29.36c2.61-3.66,7.34-3.84,9.81-0.33
			c7.28,10.36,14.28,20.94,20.97,31.69C138.43,109.93,138.47,113.53,139.24,116.68z M111.17,77.04c-9.13,10.77-17.14,20.86-21.94,33
			c-3.38,8.54-0.12,18.29,7.56,24.34c7.71,6.07,18.79,6.53,27.08,1.12c7.9-5.16,12.43-15.35,9.68-23.63
			C129.19,98.7,120.35,88.32,111.17,77.04z"/>
		<path class="st0" d="M175.08,228.09c3.19,0.68,6.49,1.04,9.51,2.17c1.45,0.54,2.37,2.52,3.53,3.84c-1.61,0.13-3.37,0.75-4.8,0.31
			c-7.53-2.32-14.73-2.16-21.56,2.08c-8.7,5.41-12.89,15.09-11.06,25.43c1.6,8.99,9.39,16.93,18.45,18.81
			c9.96,2.07,19.55-1.87,25.4-10.06c1.36-1.9,3.64-3.14,5.49-4.69c-0.69,2.58-0.76,5.57-2.17,7.66
			c-7.62,11.29-22.87,15.3-35.47,9.68c-12.44-5.55-19-19.23-15.89-33.16C149.39,237.26,161.24,228.23,175.08,228.09z"/>
		<path class="st0" d="M174.31,270.45c-7.38,0.05-13.6-6.09-13.58-13.41c0.02-7.05,6.04-13.17,13.13-13.33
			c7.38-0.17,13.71,5.84,13.85,13.15C187.85,264.17,181.71,270.4,174.31,270.45z M174.21,248.29c-4.71,0.02-8.61,3.94-8.65,8.69
			c-0.04,5.06,3.99,9.07,8.95,8.91c4.66-0.15,8.54-4.25,8.47-8.94C182.91,252.31,178.82,248.27,174.21,248.29z"/>
		<path class="st0" d="M164.56,214.05c-8.2,0-16.4,0.11-24.59-0.11c-1.46-0.04-2.89-1.42-4.33-2.18c1.4-0.81,2.8-2.31,4.21-2.33
			c16.39-0.17,32.79-0.19,49.18-0.01c1.51,0.02,3,1.62,4.5,2.48c-1.46,0.72-2.91,2.01-4.38,2.05
			C180.95,214.15,172.75,214.05,164.56,214.05z"/>
		<path class="st0" d="M95.14,114.74c0.26-0.28,1.02-1.72,1.81-1.75c0.81-0.02,2.32,1.27,2.41,2.11
			c0.91,8.31,5.48,12.64,13.71,13.48c0.75,0.08,1.37,1.35,2.05,2.07c-0.89,0.7-1.71,1.87-2.7,2.03
			C104.26,134.06,94.15,124.08,95.14,114.74z"/>
	</g>
</g>
</svg>
