<?xml version="1.0" encoding="utf-8"?>
<!-- Generator: Adobe Illustrator 26.3.1, SVG Export Plug-In . SVG Version: 6.00 Build 0)  -->
<svg version="1.1" id="Layer_1" xmlns="http://www.w3.org/2000/svg" xmlns:xlink="http://www.w3.org/1999/xlink" x="0px" y="0px"
	 viewBox="0 0 398.07 388.18" style="enable-background:new 0 0 398.07 388.18;" xml:space="preserve">
<style type="text/css">
	.st0{fill:#04216F;}
</style>
<g>
	<g>
		<path class="st0" d="M305.58,30.35c0,3.06,0,5,0,6.94c0,26.67-0.09,53.34,0.14,80.01c0.02,2.73,2.03,5.43,3,8.18
			c1.01,2.87,2.7,5.78,2.7,8.68c0.16,56.1,0.17,112.2,0.09,168.3c-0.02,10.9-7.98,19.32-17.8,19.44
			c-10.53,0.12-19.4-8.81-19.42-19.97c-0.08-41.38-0.03-82.77-0.03-124.15c0-14.53-0.27-29.07,0.23-43.58
			c0.12-3.39,2.07-7.65,4.61-9.86c8.45-7.33,10.85-17.95,5.28-27.55c-8.22-14.17-9.42-28.84-2.48-43.79
			C286.63,42.85,294.4,35.68,305.58,30.35z M281.68,240.05c0,19.86,0,39.71,0,59.57c0,9.15,4.24,14.49,11.49,14.49
			c7.33,0,10.94-4.57,10.94-13.95c0.01-38.43-0.1-76.85,0.12-115.28c0.03-5.26-1.13-7.84-6.79-7.87c-3.05-0.02-6.09-1.27-9.15-1.85
			c-6.55-1.22-6.6-1.18-6.61,5.31C281.67,200.34,281.68,220.2,281.68,240.05z M297.49,44.63c-1.92,1.74-2.96,2.5-3.76,3.44
			c-1.18,1.4-2.36,2.85-3.27,4.44c-7.86,13.69-7.51,27.53,0.48,40.85c4.57,7.62,5.46,14.99,2.16,23.07
			c-0.67,1.63-1.15,3.34-1.77,5.19c5.02,1.85,7.02,0.62,7-4.35c-0.1-22.45-0.03-44.9-0.06-67.35
			C298.28,48.53,297.88,47.15,297.49,44.63z M304.1,148.3c0-5.17-0.1-9.52,0.03-13.87c0.1-3.38-1.48-4.58-4.69-4.49
			c-4.23,0.11-8.5-0.33-12.67,0.19c-1.8,0.23-4.77,2.28-4.77,3.5c0,3.7,0.2,9.87,2.11,10.64
			C290.05,146.66,296.81,147.01,304.1,148.3z M303.36,158.97c0.2-0.92,0.4-1.84,0.59-2.76c-7.17-1.37-14.33-2.74-21.5-4.12
			c-0.16,0.81-0.33,1.62-0.49,2.42C288.75,157.58,296.11,158.04,303.36,158.97z M282.27,164.26c1.99,3.14,16.89,6.42,21.41,4.7
			C301.36,166.05,288.31,163.18,282.27,164.26z"/>
		<path class="st0" d="M138.4,269.67c0.72-6.36,1.52-11.75,1.92-17.17c3.13-42.35,6.21-84.71,9.26-127.07
			c0.49-6.81,2.86-12.37,9.01-16.1c1.81-1.09,4.09-3.36,4.12-5.12c0.3-18.91,0.18-37.82,0.18-56.73c-0.59-0.01-1.19-0.02-1.78-0.03
			c-0.73,19.57-1.45,39.14-2.19,59.02c-2.44,0-4.38,0-7.02,0c0-4.91-0.14-9.81,0.03-14.69c0.63-18.2,1.48-36.39,1.97-54.6
			c0.11-4.11,1.37-5.42,5.48-5.23c11.81,0.55,10.36-2.08,10.55,10.58c0.39,26.3,0.68,52.6,1.24,78.9c0.14,6.66-1.85,11.93-7.5,15.53
			c-4.91,3.13-7.25,7.65-7.71,13.3c-2.77,34.45-5.52,68.91-8.26,103.36c-0.07,0.89,0.1,1.79,0.18,3.03
			c2.02,0.36,3.94,0.71,6.37,1.14c0,1.98,0,4.04,0,6.72c-8.4-1.78-8.14,4.1-8.54,9.51c-0.45,6.05-0.89,12.11-1.5,18.14
			c-1.73,16.92-15.41,29.49-32.19,29.68c-15.9,0.19-29.77-12.68-31.84-29.53c-1.88-15.31,9.09-30.56,25.06-34.28
			c10.8-2.51,20.35,0.58,28.68,7.72C135.13,266.83,136.33,267.88,138.4,269.67z M111.52,314.13c13.89,0.43,24.93-10.02,25.43-24.07
			c0.48-13.33-10.23-24.77-23.75-25.36c-13.88-0.61-25.33,10.3-25.71,24.5C87.12,302.63,97.8,313.71,111.52,314.13z M163.04,116.3
			c-5.75,2.68-7.44,7.88-5.15,14.68C163.72,128.73,164.85,125.67,163.04,116.3z"/>
		<path class="st0" d="M167.06,257.39c6.88,1,6.39-2.65,5.97-7.62c-2.51-30.21-4.62-60.45-6.87-90.68
			c-0.31-4.21-0.47-8.45-1.08-12.63c-0.78-5.29,1.1-7.26,7.02-5.68c3.29,42.32,6.61,84.89,10.04,128.91
			c2.44-2.07,3.82-3.32,5.28-4.47c10.57-8.3,22.11-10.73,34.5-4.78c11.95,5.75,18.44,15.57,18.71,28.9
			c0.35,17.22-14.15,31.89-31.68,32.57c-16.39,0.63-31.52-13.59-32.84-30.96c-0.55-7.33-0.74-14.69-1.55-21.99
			c-0.17-1.53-2.12-3.74-3.61-4.09C165.88,263.68,165.81,263.95,167.06,257.39z M208.52,314.14c13.45,0.15,24.6-10.86,24.77-24.46
			c0.17-13.42-10.82-24.68-24.35-24.96c-13.63-0.28-25.42,11.14-25.34,24.53C183.68,303.23,194.44,313.98,208.52,314.14z"/>
	</g>
</g>
</svg>
