<?xml version="1.0" encoding="utf-8"?>
<!-- Generator: Adobe Illustrator 26.3.1, SVG Export Plug-In . SVG Version: 6.00 Build 0)  -->
<svg version="1.1" id="Layer_1" xmlns="http://www.w3.org/2000/svg" xmlns:xlink="http://www.w3.org/1999/xlink" x="0px" y="0px"
	 viewBox="0 0 398.07 388.18" style="enable-background:new 0 0 398.07 388.18;" xml:space="preserve">
<style type="text/css">
	.st0{fill:#04216F;}
</style>
<g>
	<g>
		<path class="st0" d="M213.13,57.58c78,0.99,140.32,62.35,140.52,140.43c0.2,77.55-63.08,140.39-141.1,140.27
			c-76.94-0.12-140.12-63.11-140.12-139.87C72.45,120.23,135.48,58.22,213.13,57.58z M213.19,73.83
			c-68.71-0.1-124.79,54.92-124.84,123.84c-0.05,69.96,55.34,124.98,125.27,124.75c69.07-0.23,123.76-55.77,123.9-124.2
			C337.67,129.67,281.72,73.79,213.19,73.83z"/>
		<path class="st0" d="M253.68,228.37c10.32,0,20.65,0.09,30.97-0.05c3.43-0.05,4.74,0.97,4.88,4.62
			c0.56,15.02,0.68,15.02-14.4,15.02c-19.48,0-38.96,0-58.93,0c0.64-10.36,4.74-18.88,11.57-25.62
			c7.42-7.32,15.91-13.55,23.75-20.46c3.92-3.45,7.93-6.98,11.02-11.12c4.12-5.52,2.31-12.08-3.34-14.87
			c-5.88-2.91-13.74-0.86-15.22,5.1c-1.67,6.74-5.26,7.6-10.98,6.44c-2.46-0.5-5.05-0.31-7.58-0.55c-8.06-0.76-8.79-1.52-6.19-9.35
			c3.38-10.19,10.51-16.62,21.28-18.34c11.04-1.76,22.09-2.19,32.78,2.03c16.95,6.7,21.61,27.91,6.61,42.87
			c-6.82,6.79-15.12,12.09-22.67,18.17c-1.78,1.43-3.24,3.26-4.85,4.9C252.81,227.57,253.25,227.97,253.68,228.37z"/>
		<path class="st0" d="M177.29,180.25c-10.27,0-20.54,0-30.81,0c-2.54,0-5.17,0.38-7.58-0.18c-1.4-0.32-3.41-2.09-3.49-3.33
			c-0.38-5.57-0.16-11.17-0.16-17.07c24.09,0,47.45,0,71.56,0c0.01,7.81,2,14.94-5.15,22.28c-15.95,16.4-24.13,36.88-26,59.75
			c-0.1,1.16-0.23,2.33-0.46,3.47c-0.15,0.75-0.49,1.46-0.85,2.47c-7.53,0-15.06,0-23.27,0c1.86-25.11,11.6-46.6,27.23-65.81
			C177.97,181.31,177.63,180.78,177.29,180.25z"/>
		<path class="st0" d="M167.41,282.59c-2.41-0.16-4.69-0.3-7.37-0.48c-0.32-3.06-0.62-5.86-0.9-8.56c-7.08-1.57-7.08-1.57-8.66,8.38
			c-2.12,0-4.3,0-7.32,0c0-7.4-0.2-14.37,0.17-21.31c0.07-1.36,2.37-3.6,3.65-3.61c1.38-0.01,3.62,1.91,4,3.38
			c1.42,5.42,1.19,5.48,8.12,4.95c1.2-3.73-0.69-11.04,8.3-7.52C167.41,265.6,167.41,273.65,167.41,282.59z"/>
		<path class="st0" d="M242.25,272.65c-0.29,2.97-0.58,5.95-0.94,9.59c-1.93,0.11-3.93,0.23-6.79,0.4c0-8.02-0.09-15.53,0.11-23.03
			c0.02-0.91,1.59-2.53,2.44-2.53c5.04,0,10.26-0.37,15.08,0.81c6.19,1.51,6.29,7.06,0.45,14.02c1.16,1.39,2.55,2.74,3.53,4.33
			c0.99,1.61,1.58,3.48,2.49,5.58c-5.19,1.56-9.32,2.04-11.12-4.43c-0.54-1.94-2.48-3.48-3.78-5.21
			C243.23,272.33,242.74,272.49,242.25,272.65z M250.71,264.31c-3.01-1.23-4.56-2.48-5.79-2.21c-1.22,0.27-2.11,2.06-3.14,3.18
			c1.02,0.84,2.17,2.47,3.03,2.33C246.38,267.36,247.77,266.05,250.71,264.31z"/>
		<path class="st0" d="M172.36,270.29c-0.05-8.11,5.32-13.75,13.16-13.82c8.08-0.07,13.04,4.86,13.08,13.01
			c0.04,8.87-4.53,13.66-13,13.65C177.2,283.11,172.41,278.46,172.36,270.29z M180.27,269.39c0.05,4.44,0.61,7.87,5.48,7.84
			c5-0.02,5.37-4.25,5.46-7.41c0.09-3.31-0.78-7.28-5.71-7.07C180.76,262.96,180.07,266.26,180.27,269.39z"/>
		<path class="st0" d="M228.45,266.97c0,1.16,0.34,2.47-0.06,3.47c-1.52,3.74-2.45,9.53-5.14,10.56
			c-4.41,1.69-10.05,0.54-15.08-0.08c-1.21-0.15-2.78-2.81-3.01-4.48c-0.71-5.15-1.14-10.39-1.04-15.58
			c0.03-1.35,2.37-2.65,3.65-3.98c1.23,1.4,3.29,2.67,3.53,4.21c0.56,3.6-0.24,7.44,0.47,10.99c0.38,1.91,2.74,3.42,4.21,5.12
			c1.51-1.63,3.94-3.07,4.34-4.94c0.72-3.34,0.27-6.94,0.22-10.43c-0.04-2.8,0.38-5,3.96-5.09c3.73-0.1,3.97,2.29,3.98,4.99
			c0.01,1.75,0,3.49,0,5.24C228.47,266.97,228.46,266.97,228.45,266.97z"/>
		<path class="st0" d="M261.13,272.64c3.77,1.73,6.21,3,8.76,3.96c1.52,0.58,3.23,0.88,4.85,0.87c0.55,0,1.09-1.33,1.63-2.05
			c-1.3-0.94-2.52-2.04-3.94-2.76c-1.37-0.7-3.34-0.59-4.35-1.55c-2.36-2.27-6.56-6.05-5.97-7.3c1.42-3,4.85-6.14,8.06-6.98
			c7.36-1.92,11.88,1.23,12.14,8.52c-3.12-1.3-5.63-2.58-8.28-3.37c-1.36-0.41-2.98,0.04-4.49,0.96
			c5.89,3.89,15.83,2.94,13.82,13.71c-1.17,6.31-6.82,6.09-11.72,5.99C264.68,282.5,262.3,280.59,261.13,272.64z"/>
	</g>
</g>
</svg>
